<?xml version="1.0" encoding="UTF-8" standalone="no"?>
<!-- Created with Inkscape (http://www.inkscape.org/) -->

<svg
   xmlns:dc="http://purl.org/dc/elements/1.1/"
   xmlns:cc="http://creativecommons.org/ns#"
   xmlns:rdf="http://www.w3.org/1999/02/22-rdf-syntax-ns#"
   xmlns:svg="http://www.w3.org/2000/svg"
   xmlns="http://www.w3.org/2000/svg"
   xmlns:xlink="http://www.w3.org/1999/xlink"
   xmlns:sodipodi="http://sodipodi.sourceforge.net/DTD/sodipodi-0.dtd"
   xmlns:inkscape="http://www.inkscape.org/namespaces/inkscape"
   width="137.55458mm"
   height="137.81563mm"
   viewBox="0 0 137.55458 137.81563"
   version="1.1"
   id="svg8"
   inkscape:version="0.92.3 (2405546, 2018-03-11)"
   sodipodi:docname="metricfarmer_logo.svg"
   inkscape:export-filename="/home/daniel/workspace/metricfarmer/docs/_static/metricfarmer_logo.png"
   inkscape:export-xdpi="90"
   inkscape:export-ydpi="90">
  <defs
     id="defs2">
    <linearGradient
       inkscape:collect="always"
       id="linearGradient1207">
      <stop
         style="stop-color:#445016;stop-opacity:1"
         offset="0"
         id="stop1203" />
      <stop
         style="stop-color:#abc837;stop-opacity:1"
         offset="1"
         id="stop1205" />
    </linearGradient>
    <linearGradient
       inkscape:collect="always"
       id="linearGradient906">
      <stop
         style="stop-color:#447821;stop-opacity:1"
         offset="0"
         id="stop902" />
      <stop
         style="stop-color:#aade87;stop-opacity:1"
         offset="1"
         id="stop904" />
    </linearGradient>
    <linearGradient
       inkscape:collect="always"
       id="linearGradient865">
      <stop
         style="stop-color:#d5e5ff;stop-opacity:1"
         offset="0"
         id="stop861" />
      <stop
         style="stop-color:#80b3ff;stop-opacity:1"
         offset="1"
         id="stop863" />
    </linearGradient>
    <radialGradient
       inkscape:collect="always"
       xlink:href="#linearGradient865"
       id="radialGradient867"
       cx="97.42337"
       cy="116.0439"
       fx="97.42337"
       fy="116.0439"
       r="66.996277"
       gradientUnits="userSpaceOnUse"
       gradientTransform="matrix(0.99938293,0,0,0.99938293,-0.29407407,0.07160678)" />
    <linearGradient
       inkscape:collect="always"
       xlink:href="#linearGradient906"
       id="linearGradient908"
       x1="97.456215"
       y1="183.04036"
       x2="97.834358"
       y2="116.09972"
       gradientUnits="userSpaceOnUse"
       gradientTransform="translate(-0.48442603,0.12217072)" />
    <linearGradient
       inkscape:collect="always"
       xlink:href="#linearGradient1207"
       id="linearGradient1211"
       gradientUnits="userSpaceOnUse"
       x1="96.904976"
       y1="183.19594"
       x2="96.988922"
       y2="116.17365"
       gradientTransform="matrix(1,0,0,1.0017977,-0.46302084,-0.31342768)" />
    <linearGradient
       inkscape:collect="always"
       xlink:href="#linearGradient1207"
       id="linearGradient1213"
       gradientUnits="userSpaceOnUse"
       x1="96.904976"
       y1="183.19594"
       x2="96.988922"
       y2="116.17365"
       gradientTransform="matrix(1,0,0,1.0048145,-0.63476513,-0.60458467)" />
    <linearGradient
       inkscape:collect="always"
       xlink:href="#linearGradient1207"
       id="linearGradient1215"
       gradientUnits="userSpaceOnUse"
       x1="96.904976"
       y1="183.19594"
       x2="96.988922"
       y2="116.17365"
       gradientTransform="matrix(1,0,0,1.0019677,0,-0.28149831)" />
    <linearGradient
       inkscape:collect="always"
       xlink:href="#linearGradient1207"
       id="linearGradient1217"
       gradientUnits="userSpaceOnUse"
       x1="96.904976"
       y1="183.19594"
       x2="96.988922"
       y2="116.17365" />
    <linearGradient
       inkscape:collect="always"
       xlink:href="#linearGradient1207"
       id="linearGradient1219"
       gradientUnits="userSpaceOnUse"
       x1="96.904976"
       y1="183.19594"
       x2="96.988922"
       y2="116.17365" />
  </defs>
  <sodipodi:namedview
     id="base"
     pagecolor="#ffffff"
     bordercolor="#666666"
     borderopacity="1.0"
     inkscape:pageopacity="0.0"
     inkscape:pageshadow="2"
     inkscape:zoom="2.8"
     inkscape:cx="325.6372"
     inkscape:cy="159.61649"
     inkscape:document-units="mm"
     inkscape:current-layer="layer1"
     showgrid="false"
     inkscape:window-width="2560"
     inkscape:window-height="1387"
     inkscape:window-x="1920"
     inkscape:window-y="30"
     inkscape:window-maximized="1"
     fit-margin-top="0"
     fit-margin-left="0"
     fit-margin-right="0"
     fit-margin-bottom="0" />
  <metadata
     id="metadata5">
    <rdf:RDF>
      <cc:Work
         rdf:about="">
        <dc:format>image/svg+xml</dc:format>
        <dc:type
           rdf:resource="http://purl.org/dc/dcmitype/StillImage" />
        <dc:title></dc:title>
      </cc:Work>
    </rdf:RDF>
  </metadata>
  <g
     inkscape:label="Layer 1"
     inkscape:groupmode="layer"
     id="layer1"
     transform="translate(-28.099782,-46.947094)">
    <circle
       style="opacity:1;fill:url(#radialGradient867);fill-opacity:1;stroke:#483e37;stroke-width:3.52777767;stroke-miterlimit:4;stroke-dasharray:none;stroke-opacity:1"
       id="path10-3"
       cx="97.069183"
       cy="116.0439"
       r="66.954933" />
    <circle
       style="opacity:1;fill:#ffcc00;fill-opacity:1;stroke:#483e37;stroke-width:0.56444442;stroke-miterlimit:4;stroke-dasharray:none;stroke-opacity:1"
       id="path10"
       cx="99.09613"
       cy="124.84544"
       r="41.010418" />
    <g
       id="g1664"
       transform="matrix(0.89699424,0,0,0.68489372,11.510359,56.098811)"
       style="stroke:#483e37">
      <path
         inkscape:connector-curvature="0"
         id="path10-3-3"
         d="m 96.97179,183.16253 c 37.00115,9e-5 64.20918,-35.72972 67.68548,-67.35008 -47.24726,0 -95.040678,0.18296 -139.253964,0.18296 4.529758,35.06958 34.567132,67.16725 71.568274,67.16716 z"
         style="opacity:1;fill:url(#linearGradient908);fill-opacity:1;stroke:#483e37;stroke-width:0.56444442;stroke-miterlimit:4;stroke-dasharray:none;stroke-opacity:1"
         sodipodi:nodetypes="ccccc" />
      <path
         inkscape:connector-curvature="0"
         id="path10-3-3-0-7"
         d="m 140.02915,115.9936 18.36426,26.76319 a 66.996275,67.116712 0 0 0 4.81624,-17.03055 l -8.20312,-9.73264 z"
         style="opacity:1;fill:url(#linearGradient1211);fill-opacity:1;stroke:#483e37;stroke-width:0.56444442;stroke-miterlimit:4;stroke-dasharray:none;stroke-opacity:1" />
      <path
         sodipodi:nodetypes="ccccc"
         inkscape:connector-curvature="0"
         id="path10-3-3-0-28"
         d="m 115.22407,115.99094 14.88491,58.39668 c 6.81905,-3.92836 12.85557,-8.95931 17.91206,-15.00223 l -17.8046,-43.39445 z"
         style="opacity:1;fill:url(#linearGradient1213);fill-opacity:1;stroke:#483e37;stroke-width:0.56444442;stroke-miterlimit:4;stroke-dasharray:none;stroke-opacity:1" />
      <path
         sodipodi:nodetypes="ccccc"
         inkscape:connector-curvature="0"
         id="path10-3-3-0-6"
         d="m 39.425989,115.99506 -10.790848,10.65028 c 0.848129,5.99674 4.524205,10.84727 6.948928,16.39817 l 20.170122,-27.04845 z"
         style="opacity:1;fill:url(#linearGradient1215);fill-opacity:1;stroke:#483e37;stroke-width:0.56444442;stroke-miterlimit:4;stroke-dasharray:none;stroke-opacity:1" />
      <path
         inkscape:connector-curvature="0"
         id="path10-3-3-0-3"
         d="m 64.86609,116.0315 -19.361091,43.18896 a 66.996275,67.072286 0 0 0 19.278409,15.77091 L 81.138481,116.0315 Z"
         style="opacity:1;fill:url(#linearGradient1217);fill-opacity:1;stroke:#483e37;stroke-width:0.56444442;stroke-miterlimit:4;stroke-dasharray:none;stroke-opacity:1" />
      <path
         sodipodi:nodetypes="cccccc"
         inkscape:connector-curvature="0"
         id="path10-3-3-0"
         d="m 91.132743,115.92862 -5.172421,66.39307 c 3.239017,0.50055 6.486682,1.05818 9.763895,1.07877 5.216183,-0.0251 10.458853,-0.47119 15.527943,-1.70449 l -5.21128,-65.73286 z"
         style="opacity:1;fill:url(#linearGradient1219);fill-opacity:1;stroke:#483e37;stroke-width:0.56444442;stroke-miterlimit:4;stroke-dasharray:none;stroke-opacity:1" />
    </g>
    <circle
       style="opacity:1;fill:none;fill-opacity:1;stroke:#483e37;stroke-width:3.52777767;stroke-miterlimit:4;stroke-dasharray:none;stroke-opacity:1"
       id="path10-3-5"
       cx="96.818604"
       cy="115.66592"
       r="66.954933" />
    <text
       xml:space="preserve"
       style="font-style:normal;font-weight:normal;font-size:10.58333302px;line-height:1.25;font-family:sans-serif;letter-spacing:0px;word-spacing:0px;fill:#483e37;fill-opacity:1;stroke:none;stroke-width:0.26458332"
       id="text1692"
       transform="matrix(-1.1485853,-0.37419668,0.37419668,-1.1485853,164.44071,304.24433)"><textPath
         xlink:href="#path10"
         id="textPath1694"
         style="font-style:normal;font-variant:normal;font-weight:bold;font-stretch:normal;font-size:16.06186104px;font-family:'Ubuntu Mono';-inkscape-font-specification:'Ubuntu Mono, Bold';font-variant-ligatures:normal;font-variant-caps:normal;font-variant-numeric:normal;font-feature-settings:normal;text-align:start;writing-mode:lr-tb;text-anchor:start;fill:#483e37;fill-opacity:1">Metric-Farmer</textPath></text>
    <path
       style="fill:#483e37;fill-opacity:1;stroke-width:0.12592369"
       d="m 93.85243,135.46591 c 0.73664,-0.2009 1.46404,-0.71348 1.71305,-1.20714 0.0847,-0.168 0.15467,-0.64873 0.15542,-1.06829 0.002,-0.9328 -0.248,-1.39996 -1.08437,-2.02895 -1.67357,-1.25857 -6.526343,-3.36356 -9.562271,-4.14784 -1.42097,-0.36708 -1.513264,-0.44788 -1.761893,-1.54258 -0.257571,-1.13401 -0.418493,-5.22946 -0.210632,-5.36042 0.07421,-0.0468 0.419428,0.17261 0.76717,0.48745 1.819447,1.64731 2.188617,1.44669 4.802634,-2.60994 0.701622,-1.08882 1.452792,-2.10825 1.669292,-2.26539 l 0.39361,-0.28573 v 0.33166 c 0,0.18241 -0.11932,0.49619 -0.26516,0.69728 -0.22234,0.30658 -0.25098,0.46484 -0.17731,0.98018 0.17411,1.2179 1.1613,2.38305 2.61643,3.08811 l 0.75695,0.36676 3.24269,0.0419 3.24267,0.0419 0.90007,0.59861 c 0.49503,0.32925 0.9312,0.54727 0.96925,0.4845 0.038,-0.0628 0.0314,-0.35521 -0.0148,-0.64988 -0.1036,-0.50483 -0.0976,-1.08168 -0.15968,-1.44439 -0.0752,-0.41633 -0.19065,-0.81195 -0.25658,-0.87917 -0.0767,-0.0782 -0.3748,0.0504 -0.82748,0.35674 l -0.7076,0.47895 -1.510521,-0.0818 c -0.830799,-0.045 -1.727899,-0.11425 -1.993569,-0.15395 l -0.48303,-0.0721 1.195,-1.2258 1.194999,-1.2258 -0.284027,-0.85544 c -0.505952,-1.52372 -1.536222,-2.75009 -2.961832,-3.52553 -0.32683,-0.17778 -0.83147,-0.49486 -1.12144,-0.70465 -0.42738,-0.30919 -0.65345,-0.38142 -1.19386,-0.38142 -0.5252,0 -0.6814,-0.0472 -0.7363,-0.22249 -0.0864,-0.27581 -0.22279,-0.28267 -0.43511,-0.0219 -0.0899,0.11034 -0.42997,0.33836 -0.75585,0.5067 -0.67026,0.34624 -0.93891,0.67306 -1.843983,2.24324 -0.429962,0.7459 -1.150634,1.66871 -2.209234,2.82887 -0.864116,0.94701 -1.616704,1.72184 -1.672423,1.72184 -0.270848,0 -2.370507,-4.06738 -2.881978,-5.58287 -0.308962,-0.91546 -0.747668,-1.58489 -1.228338,-1.87434 -0.331532,-0.19965 -0.372048,-0.28139 -0.304312,-0.61397 0.101669,-0.49912 0.362549,-0.91123 0.689899,-1.08982 0.214176,-0.11685 0.375826,-0.0828 0.884535,0.18624 0.63328,0.33494 1.22304,0.43231 1.22304,0.20193 0,-0.07 0.224494,-0.34937 0.498877,-0.62082 0.274374,-0.27144 0.498868,-0.57938 0.498868,-0.68431 0,-0.10491 0.119443,-0.22259 0.265415,-0.26151 0.218107,-0.0581 0.2513,-0.13443 0.186235,-0.42803 -0.222658,-1.00476 -0.240416,-1.22276 -0.09195,-1.12924 0.108298,0.0682 0.126352,0.002 0.06594,-0.24431 -0.09138,-0.37114 0.160346,-0.9884 0.373533,-0.91595 0.169045,0.0575 0.572784,-1.11243 0.572784,-1.65968 0,-0.85135 -0.69418,-1.78719 -1.711076,-2.30675 -1.711437,-0.87442 -4.034637,-0.82001 -4.520713,0.10588 -0.128142,0.24408 -0.211081,0.26065 -0.928884,0.18569 -1.529393,-0.15973 -2.884218,0.62904 -3.252614,1.89365 -0.275786,0.94669 -0.232796,1.67716 0.197426,3.3552 0.44628,1.74066 0.519405,2.95921 0.199243,3.31986 -0.271234,0.30553 -0.269471,0.45397 0.0036,0.29823 0.117608,-0.0671 0.281705,-0.3131 0.364663,-0.54667 l 0.15082,-0.42466 0.0094,0.54442 c 0.0054,0.29944 -0.07466,0.74984 -0.177591,1.00087 -0.102891,0.25104 -0.187081,0.47805 -0.187081,0.50448 0,0.12333 0.25498,0.0202 0.684645,-0.27711 0.288344,-0.19948 0.443374,-0.25439 0.401095,-0.14208 -0.68747,1.82629 -0.756133,3.34314 -0.262896,5.80713 0.659457,3.29432 0.529462,5.4459 -0.520664,8.61783 -0.592755,1.79044 -0.691122,2.58734 -0.437761,3.54653 0.2067,0.78252 0.863054,1.69221 1.596554,2.2128 l 0.650308,0.46155 c 0.67327,0.22442 -0.274239,0.45175 -0.274239,0.45175 -0.985495,0.46876 -1.833327,0.80997 -2.868242,1.04465 -1.141269,0.25879 -1.60778,0.56158 -1.351064,0.87692 0.383697,0.4713 0.840302,1.05869 10.987853,0.90479 6.77462,0.2333 8.21068,0.23135 9.10448,-0.0124 z m -2.61888,-20.0433 c 1.2e-4,-0.19949 0.16572,-0.39265 0.54716,-0.63829 0.62877,-0.40494 0.78084,-0.72991 0.86615,-1.85099 0.0336,-0.44257 0.0853,-0.82915 0.1146,-0.85908 0.14463,-0.14744 0.8869,0.1518 1.30565,0.52635 l 0.47127,0.42151 -0.49198,0.42152 c -0.79979,0.68524 -2.73606,2.26505 -2.77611,2.26505 -0.0203,0 -0.0369,-0.12873 -0.0368,-0.28607 z m -13.627452,-5.88023 c -0.04858,-0.71459 -0.04165,-0.73872 0.10963,-0.38142 l 0.161443,0.38142 0.0054,-0.50897 c 0.0027,-0.27994 -0.106616,-0.9091 -0.243808,-1.39814 -0.366966,-1.30814 -0.332791,-2.36278 0.107309,-3.31112 0.331541,-0.71441 0.9882,-1.45665 1.288716,-1.45665 0.136715,0 0.109737,0.13026 -0.197525,0.95356 -0.260755,0.69866 -0.245966,1.33576 0.04867,2.09781 0.297457,0.76931 0.316402,1.42739 0.06225,2.1618 -0.233642,0.67509 -1.219441,2.50989 -1.260308,2.34574 -0.01655,-0.0667 -0.05352,-0.46448 -0.08195,-0.88403 z"
       id="path1708"
       inkscape:connector-curvature="0"
       sodipodi:nodetypes="cccccccccccscccccccccccccccccccccscccccscccccscscccccssccccccccccsccccccccccccccccccccsccccccccscccccc" />
    <path
       style="fill:#483e37;fill-opacity:1;stroke-width:0.1397216"
       d="m 130.20639,134.46994 c 0.21761,-0.58728 0.5038,-1.22261 0.63599,-1.41231 0.44523,-0.63848 -0.0149,-0.35171 -0.57399,0.35828 l -0.55387,0.70317 0.0957,-1.85038 c 0.0526,-1.01769 0.11279,-1.87138 0.13374,-1.89711 0.021,-0.0262 0.25603,-0.0695 0.52259,-0.0971 0.60351,-0.0656 0.73058,-0.19488 0.42806,-0.44293 -0.22466,-0.18438 -0.22466,-0.19751 2e-4,-0.30118 0.15918,-0.0742 0.18136,-0.13124 0.069,-0.17849 -0.0912,-0.0394 -0.13188,-0.13058 -0.0905,-0.20604 0.0412,-0.0754 -0.0326,-0.18111 -0.16402,-0.23623 -0.13154,-0.0525 -0.32818,-0.20538 -0.43698,-0.33334 -0.2233,-0.26379 -1.04043,-0.27494 -1.18304,-0.0197 -0.05,0.0906 -0.18999,0.12205 -0.31113,0.0702 -0.12164,-0.0525 -0.22027,-0.0197 -0.22027,0.0656 0,0.0879 -0.0791,0.12534 -0.17582,0.084 -0.12455,-0.0525 -0.17586,0.0656 -0.17586,0.41012 0,0.60172 0.26024,0.91342 0.68638,0.82201 0.25095,-0.0525 0.32472,-0.007 0.32472,0.20605 0,0.15157 0.089,0.27559 0.1978,0.27559 0.16586,0 0.19783,0.31629 0.19783,1.95741 0,1.81587 -0.0149,1.93346 -0.20582,1.62742 -0.25804,-0.4134 -0.86391,-0.77221 -1.30426,-0.77221 -0.32227,0 -0.33625,-0.0328 -0.33625,-0.87024 0,-0.93106 0.0242,-0.96164 1.00989,-1.27189 0.15651,-0.0459 0.3209,-0.19554 0.36533,-0.32546 0.0671,-0.19686 0.003,-0.22245 -0.37079,-0.15421 -0.38321,0.0695 -0.46379,0.0328 -0.53248,-0.23951 l -0.081,-0.32087 -0.26145,0.34909 c -0.14381,0.19226 -0.26144,0.26838 -0.26144,0.16864 0,-0.12533 -0.11146,-0.14633 -0.36268,-0.0695 -0.19946,0.059 -0.46781,0.10564 -0.59632,0.0991 -0.12849,-0.003 -0.20195,0.0459 -0.16321,0.11614 0.0386,0.0702 -0.0343,0.15749 -0.16201,0.19359 -0.16357,0.0459 -0.11122,0.0978 0.17688,0.17323 0.22513,0.059 0.57273,0.25394 0.77245,0.43243 0.36151,0.32349 0.36271,0.33072 0.26795,1.60773 -0.0833,1.12267 -0.11909,1.25587 -0.28712,1.06728 -0.2183,-0.24476 -0.80593,-0.44358 -0.92325,-0.31169 -0.043,0.0459 0.069,0.15027 0.24863,0.22704 0.35124,0.15027 1.01645,1.12005 1.02513,1.4051 0.003,0.0951 0.15471,-0.34778 0.32649,-0.79609 0.17182,-0.44751 0.39758,-0.83369 0.50173,-0.85757 0.17733,-0.0394 0.92515,0.92726 1.21944,1.4925 0.10819,0.20735 0.20298,-0.0748 0.52752,-0.95023 z m -2.43977,-0.57285 c 0,-0.16798 0.088,-0.29594 0.20247,-0.29594 0.16159,0 0.17397,0.059 0.0613,0.29594 -0.0775,0.16274 -0.16872,0.29594 -0.20246,0.29594 -0.0337,0 -0.0613,-0.1332 -0.0613,-0.29594 z m -2.4745,0.76059 c 0.14506,-0.30447 0.39773,-0.55514 0.68019,-0.75947 0.46768,-0.33794 0.48669,-0.376 0.21284,-0.42128 -0.1654,-0.0262 -0.46253,0.084 -0.66025,0.24869 l -0.3595,0.29792 -0.0832,-0.98861 c -0.15682,-1.86331 -0.1233,-2.15939 0.28282,-2.49641 0.20232,-0.16798 0.5584,-0.35171 0.79127,-0.40946 0.23286,-0.059 0.4234,-0.17257 0.4234,-0.25657 0,-0.084 -0.0956,-0.1109 -0.21251,-0.059 -0.15671,0.0676 -0.19096,0.0262 -0.13038,-0.14829 0.0583,-0.17062 0.0257,-0.21589 -0.11339,-0.15618 -0.10758,0.0459 -0.38686,0.007 -0.62062,-0.0821 -0.32716,-0.12796 -0.4375,-0.12467 -0.47907,0.0197 -0.0328,0.1109 -0.20385,-0.003 -0.43589,-0.2979 -0.39321,-0.49411 -0.47465,-0.7228 -0.25757,-0.7228 0.12416,0 0.0899,-0.47114 -0.0531,-0.73047 -0.0416,-0.0755 -0.0143,-0.17913 0.0606,-0.23229 0.18997,-0.13123 0.0126,-0.40683 -0.20263,-0.31431 -0.0968,0.0394 -0.2008,-0.003 -0.23116,-0.10105 -0.0373,-0.11943 -0.15141,-0.0807 -0.35207,0.11942 l -0.29691,0.29594 0.0469,-0.35434 c 0.0424,-0.32153 -0.003,-0.35762 -0.49358,-0.38453 -0.58447,-0.0328 -1.06145,0.24214 -0.907,0.52299 0.0672,0.12205 0.0126,0.14371 -0.18459,0.0742 -0.1663,-0.059 -0.28029,-0.0328 -0.28029,0.059 0,0.29987 -0.0228,0.38059 -0.15923,0.56497 -0.1,0.13518 -0.0791,0.18505 0.077,0.18505 0.26893,0 0.27982,0.23623 0.0162,0.34975 -0.30903,0.13321 -0.23687,0.53676 0.0988,0.55317 1.04216,0.0525 0.94755,-0.0755 1.04107,1.3917 0.0466,0.73277 0.0888,1.79861 0.0935,2.36851 0.008,1.0312 0.008,1.03402 -0.19989,0.59189 -0.2407,-0.51249 -0.68067,-1.08331 -0.97004,-1.25857 -0.1306,-0.0794 -0.0507,0.22114 0.2303,0.86478 0.23673,0.54202 0.54178,1.31626 0.67792,1.72001 l 0.2475,0.9285 0.2727,-0.79451 c 0.30838,-0.6785 1.19145,-1.62045 1.34492,-1.43462 0.0556,0.0676 0.23428,0.53873 0.3971,1.04767 0.16282,0.50854 0.31174,1.16807 0.32015,1.16788 0.14227,-0.28479 0.36748,-0.96236 0.36748,-0.96236 z m -2.47364,-3.01761 c 0.003,-2.03576 0.0328,-2.40566 0.20048,-2.40946 0.1203,-0.003 0.18688,-0.12533 0.1699,-0.31169 -0.026,-0.28807 0.005,-0.29726 0.49996,-0.14829 0.42001,0.12598 0.55094,-0.49018 0.52041,-0.25067 -0.22979,0.56432 -0.15084,1.00186 -0.49789,0.96426 -0.32177,-0.0328 -0.42861,0.0131 -0.42861,0.18965 0,0.12992 0.10382,0.27691 0.23079,0.32743 0.12691,0.0525 0.483,0.21654 0.79126,0.36943 l 0.56049,0.27823 v 1.03251 1.03252 h -0.40219 c -0.5555,0 -1.1203,0.35827 -1.39876,0.88742 -0.12877,0.24476 -0.23735,0.4449 -0.2413,0.4449 -0.003,0 -0.005,-1.08225 -0.003,-2.40506 z m 1.71724,1.51664 c 0.16473,-0.29922 0.32955,-0.13451 0.32955,0.32941 0,0.47377 -6.1e-4,0.47508 -0.20545,0.14764 -0.11302,-0.18111 -0.16884,-0.39568 -0.12405,-0.47705 z"
       id="path1708-0"
       inkscape:connector-curvature="0"
       sodipodi:nodetypes="cccccccccccccccscscssscssccccccscccccccccccccccccscsccccccccccsccccccsccccccccccscscccccccccccsccccccccscccccscsccccccc" />
    <path
       style="fill:#483e37;fill-opacity:1;stroke-width:0.14765127"
       d="m 89.009515,134.47765 c -0.269656,-0.57709 -0.624295,-1.10288 -0.788118,-1.27601 -0.551712,-0.57708 0.01849,-0.32059 0.711305,0.32061 l 0.686338,0.64121 -0.11873,-1.66713 c -0.0653,-0.91693 -0.13987,-1.68639 -0.16572,-1.71202 -0.02603,-0.023 -0.317269,-0.0616 -0.647579,-0.0616 -0.747861,-0.0565 -0.905325,-0.19237 -0.530449,-0.44884 0.278419,-0.19236 0.278419,-0.19236 -2.31e-4,-0.25648 -0.197245,-0.0615 -0.224759,-0.12821 -0.08542,-0.19236 0.112912,-0.034 0.163421,-0.1282 0.112161,-0.19237 -0.05114,-0.0609 0.0403,-0.19236 0.203245,-0.19236 0.163009,-0.0493 0.406658,-0.19236 0.541482,-0.3206 0.27671,-0.25649 1.289281,-0.25649 1.466011,-0.0143 0.062,0.061 0.23544,0.12821 0.38555,0.061 0.15071,-0.0468 0.27293,-0.0205 0.27293,0.0584 0,0.0616 0.098,0.1282 0.21791,0.0616 0.15429,-0.0487 0.2179,0.0596 0.2179,0.38472 0,0.57709 -0.32245,0.82073 -0.85056,0.74379 -0.31095,-0.0487 -0.40237,-0.006 -0.40237,0.19238 0,0.1282 -0.11026,0.25647 -0.24514,0.25647 -0.20552,0 -0.24513,0.3206 -0.24513,1.76332 0,1.63508 0.0184,1.74409 0.25507,1.46837 0.31975,-0.38472 1.07053,-0.69251 1.61622,-0.69251 0.39935,0 0.41666,-0.0327 0.41666,-0.78227 0,-0.83999 -0.0299,-0.86563 -1.25143,-1.14776 -0.19396,-0.0448 -0.39767,-0.19236 -0.45271,-0.3206 -0.0832,-0.19237 -0.006,-0.19237 0.45946,-0.1282 0.47489,0.0616 0.57474,0.0309 0.65984,-0.25648 l 0.10032,-0.3206 0.32398,0.3206 c 0.17821,0.19236 0.324,0.25648 0.324,0.12822 0,-0.12822 0.13801,-0.12822 0.44941,-0.0616 0.24719,0.0545 0.57972,0.1282 0.73895,0.0616 0.15922,-0.005 0.25025,0.0417 0.20227,0.1282 -0.048,0.0616 0.0424,0.1282 0.20074,0.19236 0.2027,0.0417 0.13773,0.0609 -0.21919,0.19237 -0.27897,0.0539 -0.70973,0.25648 -0.95722,0.38472 -0.44795,0.32061 -0.44945,0.32061 -0.33201,1.44913 0.10336,1.01311 0.14764,1.13494 0.35579,0.96181 0.27052,-0.25648 0.99867,-0.44885 1.14407,-0.3206 0.0532,0.0436 -0.0854,0.1282 -0.3081,0.19235 -0.43525,0.1282 -1.25956,1.0131 -1.27033,1.26959 -0.004,0.0615 -0.19171,-0.32059 -0.40459,-0.71814 -0.21291,-0.44885 -0.49269,-0.75021 -0.62171,-0.76946 -0.21976,-0.0366 -1.14646,0.83358 -1.51114,1.34655 -0.134,0.19235 -0.25153,-0.0616 -0.653677,-0.85923 z m 3.023325,-0.51297 c 0,-0.1282 -0.10881,-0.25649 -0.25089,-0.25649 -0.20021,0 -0.21558,0.0539 -0.0759,0.25649 0.0962,0.1282 0.20908,0.25649 0.25087,0.25649 0.0419,0 0.0758,-0.1282 0.0758,-0.25649 z m 3.06636,0.6861 c -0.17977,-0.25649 -0.49284,-0.51298 -0.84287,-0.6861 -0.57955,-0.3206 -0.6031,-0.38472 -0.26374,-0.38472 0.20496,-0.025 0.57313,0.0609 0.81816,0.25648 l 0.44548,0.25649 0.10311,-0.88486 c 0.19433,-1.67997 0.15277,-1.94287 -0.35045,-2.25065 -0.25074,-0.1282 -0.69196,-0.32059 -0.98053,-0.38471 -0.28856,-0.052 -0.52467,-0.19237 -0.52467,-0.25649 0,-0.0616 0.11849,-0.12821 0.26332,-0.0545 0.19419,0.061 0.23662,0.0256 0.16157,-0.1282 -0.0722,-0.19237 -0.0319,-0.19237 0.14058,-0.1282 0.1333,0.0417 0.4794,0.008 0.76908,-0.0616 0.40539,-0.12821 0.54214,-0.12821 0.59364,0.0143 0.0406,0.12821 0.25262,-0.006 0.54016,-0.25646 0.48727,-0.44886 0.58813,-0.64762 0.31918,-0.64762 -0.15383,0 -0.1116,-0.44886 0.0658,-0.65405 0.0515,-0.0616 0.0177,-0.19235 -0.0751,-0.19235 -0.23541,-0.1282 -0.0155,-0.38472 0.25109,-0.3206 0.11983,0.0378 0.24884,-0.004 0.28645,-0.0609 0.0462,-0.12822 0.18762,-0.0615 0.43628,0.1282 l 0.36792,0.25647 -0.0581,-0.32061 c -0.0525,-0.3206 0.006,-0.3206 0.611592,-0.38472 0.724267,-0.0294 1.315311,0.25649 1.123934,0.51297 -0.0834,0.1282 -0.015,0.1282 0.228737,0.0615 0.20606,-0.0539 0.34733,-0.0327 0.34733,0.0519 0,0.25648 0.0282,0.38472 0.197307,0.51297 0.12388,0.1282 0.098,0.19234 -0.0955,0.19234 -0.33323,0 -0.34674,0.19237 -0.0201,0.32061 0.382937,0.12821 0.293487,0.51297 -0.12245,0.51297 -1.291424,0.0462 -1.174184,-0.0609 -1.290064,1.25677 -0.0579,0.66045 -0.11002,1.62225 -0.11583,2.13521 -0.01,0.92977 -0.008,0.92977 0.24772,0.5771 0.298237,-0.51298 0.843434,-0.97464 1.202034,-1.13494 0.161827,-0.0616 0.0629,0.19235 -0.28542,0.77585 -0.293337,0.51298 -0.671324,1.19265 -0.840034,1.55172 l -0.30667,0.83999 -0.337937,-0.71815 c -0.382142,-0.64121 -1.476432,-1.46196 -1.666602,-1.29524 -0.0691,0.0609 -0.29033,0.51296 -0.49209,0.94257 -0.20175,0.44884 -0.38629,1.05159 -0.39672,1.05159 -0.17629,-0.25649 -0.45538,-0.87206 -0.45538,-0.87206 z m 3.065302,-2.71872 c -0.002,-1.83385 -0.041,-2.16727 -0.24844,-2.16727 -0.149032,-0.004 -0.231582,-0.12821 -0.210522,-0.32061 0.0325,-0.25649 -0.006,-0.25649 -0.61955,-0.1282 -0.52046,0.1282 -0.68272,-0.44884 -0.64488,-0.25649 0.28475,0.51298 0.1869,0.89769 0.61698,0.87206 0.39872,-0.0315 0.53111,0.0109 0.53111,0.19234 0,0.12821 -0.12872,0.25649 -0.28598,0.32061 -0.15728,0.0454 -0.59854,0.19237 -0.98051,0.3206 l -0.69457,0.25649 v 0.92975 0.92975 h 0.49838 c 0.6884,0 1.38827,0.3206 1.73333,0.7951 0.159552,0.25649 0.294132,0.44884 0.299002,0.44884 0.006,0 0.006,-0.97463 0.006,-2.16727 z m -2.127982,1.36578 c -0.20413,-0.25649 -0.40838,-0.12821 -0.40838,0.32059 0,0.44885 0.001,0.44885 0.2546,0.12821 0.14,-0.19236 0.20923,-0.38472 0.15378,-0.44884 z"
       id="path1708-0-8"
       inkscape:connector-curvature="0"
       sodipodi:nodetypes="cccccccccccccccscscssscssccccccscccccccccccccccccscsccccccccccsccccccsccccccccccscscccccccccccsccccccccscccccscsccccccc" />
    <path
       style="fill:#483e37;fill-opacity:1;stroke-width:0.10178956"
       d="m 69.251379,134.91537 c -0.179448,-0.37787 -0.415463,-0.78688 -0.524481,-0.90893 -0.367155,-0.41105 0.0123,-0.2262 0.473356,0.23061 l 0.456751,0.45254 -0.079,-1.19088 c -0.04343,-0.65498 -0.09307,-1.20442 -0.110282,-1.22097 -0.01727,-0.0166 -0.211136,-0.0447 -0.430949,-0.0627 -0.497694,-0.0406 -0.602482,-0.12509 -0.353003,-0.28488 0.185273,-0.11869 0.185273,-0.12678 -1.66e-4,-0.19385 -0.131262,-0.0474 -0.149565,-0.0843 -0.05685,-0.11468 0.07516,-0.0245 0.108756,-0.0842 0.07464,-0.13249 -0.034,-0.0483 0.02686,-0.11667 0.135264,-0.15197 0.108468,-0.0353 0.270624,-0.13188 0.360344,-0.21464 0.184149,-0.16986 0.857986,-0.17689 0.975593,-0.0101 0.04124,0.0584 0.156688,0.0788 0.256584,0.0453 0.100294,-0.0337 0.18163,-0.0151 0.18163,0.0414 0,0.0563 0.06522,0.0805 0.145013,0.0537 0.102676,-0.0345 0.145005,0.0425 0.145005,0.26385 0,0.38732 -0.214591,0.58789 -0.566023,0.52904 -0.206943,-0.0346 -0.267775,-0.005 -0.267775,0.13248 0,0.0975 -0.07342,0.17734 -0.163123,0.17734 -0.136774,0 -0.163134,0.20347 -0.163134,1.25971 0,1.16869 0.01229,1.24438 0.169735,1.04743 0.212784,-0.26612 0.712413,-0.49699 1.075549,-0.49699 0.265767,0 0.277287,-0.0233 0.277287,-0.56008 0,-0.59926 -0.01998,-0.6189 -0.832803,-0.81859 -0.129065,-0.0318 -0.264625,-0.12609 -0.301266,-0.2097 -0.05546,-0.12655 -0.0034,-0.14318 0.305766,-0.0991 0.316021,0.0449 0.382476,0.0216 0.439111,-0.15395 l 0.06672,-0.20688 0.215601,0.22492 c 0.118592,0.1237 0.215611,0.17264 0.215611,0.10875 0,-0.0804 0.09187,-0.0943 0.299077,-0.0449 0.164486,0.0392 0.385773,0.0679 0.491746,0.0636 0.105966,-0.004 0.166534,0.0295 0.134602,0.0748 -0.03192,0.0453 0.02825,0.10137 0.133599,0.12468 0.13489,0.0299 0.09168,0.0628 -0.145877,0.11161 -0.185648,0.038 -0.472301,0.16334 -0.636995,0.27839 -0.298118,0.20824 -0.299112,0.21285 -0.220964,1.03472 0.06872,0.72257 0.09826,0.80828 0.236774,0.68693 0.180024,-0.1577 0.664602,-0.28541 0.761359,-0.20066 0.0354,0.031 -0.05685,0.0968 -0.205034,0.14613 -0.28965,0.0965 -0.838207,0.72083 -0.845375,0.90431 -0.0026,0.0614 -0.127574,-0.22415 -0.269247,-0.51235 -0.141682,-0.2882 -0.327862,-0.53656 -0.413737,-0.55195 -0.146242,-0.0262 -0.762937,0.5968 -1.005624,0.96059 -0.08922,0.13375 -0.167388,-0.048 -0.435013,-0.61158 z m 2.011952,-0.36869 c 0,-0.10779 -0.07247,-0.19054 -0.16696,-0.19054 -0.133251,0 -0.143461,0.0385 -0.05049,0.19054 0.064,0.1048 0.139145,0.19054 0.166953,0.19054 0.02782,0 0.05049,-0.0857 0.05049,-0.19054 z m 2.040599,0.48954 c -0.119629,-0.19594 -0.327976,-0.35738 -0.560913,-0.48879 -0.385677,-0.21758 -0.401354,-0.2418 -0.175517,-0.27106 0.136399,-0.0177 0.381413,0.0542 0.544468,0.15985 l 0.296463,0.19202 0.06863,-0.63623 c 0.129308,-1.19924 0.101653,-1.38977 -0.233225,-1.60667 -0.166857,-0.10807 -0.460485,-0.2267 -0.652525,-0.26366 -0.192032,-0.0369 -0.349156,-0.11122 -0.349156,-0.16506 0,-0.0539 0.07883,-0.0714 0.175245,-0.0389 0.129222,0.0434 0.157456,0.0184 0.107517,-0.0957 -0.04814,-0.11 -0.02119,-0.13895 0.09358,-0.10037 0.08871,0.0298 0.319029,0.006 0.511801,-0.0528 0.26978,-0.0823 0.360781,-0.08 0.395069,0.01 0.02704,0.0711 0.168104,-0.004 0.359455,-0.1919 0.324261,-0.31817 0.391396,-0.46522 0.212402,-0.46522 -0.10236,0 -0.0742,-0.303 0.04377,-0.47012 0.03427,-0.0486 0.01177,-0.1157 -0.04996,-0.14913 -0.156654,-0.0848 -0.01033,-0.26203 0.167101,-0.2024 0.07979,0.0268 0.165584,-0.003 0.19062,-0.0649 0.03078,-0.0769 0.12487,-0.052 0.29034,0.0768 l 0.244839,0.19054 -0.03872,-0.22815 c -0.03496,-0.20666 0.0034,-0.22999 0.407014,-0.24752 0.481971,-0.0209 0.875321,0.1561 0.747948,0.33664 -0.05537,0.0784 -0.0099,0.0926 0.152234,0.0475 0.137131,-0.0381 0.231132,-0.0229 0.231132,0.0374 0,0.19274 0.01883,0.24497 0.131314,0.36368 0.08241,0.0869 0.06522,0.11908 -0.06357,0.11908 -0.221766,0 -0.230756,0.1519 -0.01335,0.225 0.254833,0.0857 0.19532,0.3454 -0.08153,0.35601 -0.859415,0.033 -0.781398,-0.0484 -0.858517,0.89569 -0.03855,0.47159 -0.07324,1.15754 -0.07717,1.52432 -0.007,0.66369 -0.0062,0.66553 0.164843,0.38109 0.198484,-0.32981 0.561306,-0.69721 0.799946,-0.81002 0.10769,-0.0509 0.04177,0.14237 -0.189939,0.55655 -0.195214,0.34901 -0.446769,0.84714 -0.55903,1.10698 l -0.204099,0.5976 -0.224889,-0.51134 c -0.254301,-0.43666 -0.982533,-1.04292 -1.109078,-0.92331 -0.04586,0.0433 -0.193217,0.34677 -0.327479,0.67425 -0.13426,0.3275 -0.257073,0.7518 -0.264005,0.75165 -0.11732,-0.18328 -0.303055,-0.61937 -0.303055,-0.61937 z m 2.039884,-1.94212 c -0.0018,-1.31024 -0.02721,-1.5483 -0.165323,-1.5507 -0.09918,-0.002 -0.154108,-0.0803 -0.140095,-0.20044 0.02153,-0.18522 -0.0043,-0.19124 -0.412298,-0.0958 -0.346359,0.081 -0.454337,-0.31551 -0.429163,-0.16144 0.189502,0.36332 0.12439,0.6448 0.410597,0.62059 0.265333,-0.0225 0.353448,0.008 0.353448,0.12208 0,0.0836 -0.08563,0.1784 -0.190323,0.21066 -0.104668,0.0322 -0.398311,0.13919 -0.652517,0.23757 l -0.46221,0.1789 v 0.6645 0.66452 h 0.331665 c 0.458112,0 0.923863,0.23061 1.153487,0.57113 0.106192,0.15747 0.195738,0.2863 0.198982,0.2863 0.0034,0 0.0043,-0.69653 0.0034,-1.54785 z m -1.416117,0.97606 c -0.13584,-0.19256 -0.271767,-0.0866 -0.271767,0.21191 0,0.30514 6.88e-4,0.30572 0.169429,0.0951 0.09319,-0.11654 0.13924,-0.2547 0.102338,-0.30701 z"
       id="path1708-0-9"
       inkscape:connector-curvature="0"
       sodipodi:nodetypes="cccccccccccccccscscssscssccccccscccccccccccccccccscsccccccccccsccccccsccccccccccscscccccccccccsccccccccscccccscsccccccc" />
    <path
       style="fill:#483e37;fill-opacity:1;stroke-width:0.07776322"
       d="m 67.578178,135.03838 c 0.127084,-0.31141 0.294228,-0.64848 0.371433,-0.74907 0.260016,-0.33875 -0.0087,-0.18641 -0.335227,0.19005 l -0.323469,0.37295 0.05595,-0.98143 c 0.03075,-0.53979 0.06591,-0.99259 0.0781,-1.00622 0.01223,-0.0136 0.149526,-0.0369 0.305196,-0.0516 0.352462,-0.0334 0.426672,-0.10308 0.249993,-0.23478 -0.131209,-0.0978 -0.131209,-0.10447 1.18e-4,-0.15975 0.09296,-0.0391 0.105921,-0.0695 0.04026,-0.0945 -0.05323,-0.0202 -0.07702,-0.0694 -0.05286,-0.10918 0.02408,-0.0398 -0.01902,-0.0962 -0.09579,-0.12525 -0.07682,-0.0291 -0.191655,-0.10868 -0.255193,-0.17689 -0.130413,-0.13998 -0.607619,-0.14578 -0.690907,-0.008 -0.02921,0.0482 -0.110966,0.0649 -0.181712,0.0373 -0.07103,-0.0278 -0.128628,-0.0125 -0.128628,0.0342 0,0.0464 -0.04619,0.0664 -0.102697,0.0443 -0.07272,-0.0285 -0.102691,0.035 -0.102691,0.21745 0,0.3192 0.151971,0.48449 0.400853,0.43599 0.146555,-0.0285 0.189635,-0.004 0.189635,0.10918 0,0.0804 0.052,0.14615 0.115523,0.14615 0.09686,0 0.11553,0.16769 0.11553,1.03815 0,0.96315 -0.0087,1.02552 -0.120204,0.86322 -0.150693,-0.21932 -0.504526,-0.4096 -0.761696,-0.4096 -0.188214,0 -0.196372,-0.0191 -0.196372,-0.46156 0,-0.49386 0.01414,-0.51005 0.589784,-0.67462 0.0914,-0.0262 0.187405,-0.10391 0.213355,-0.17282 0.03928,-0.10429 0.0025,-0.11799 -0.216542,-0.0817 -0.223803,0.037 -0.270866,0.0178 -0.310975,-0.12687 l -0.04724,-0.1705 -0.152688,0.18536 c -0.08399,0.10194 -0.152693,0.14228 -0.152693,0.0896 0,-0.0663 -0.06507,-0.0777 -0.211805,-0.037 -0.116487,0.0323 -0.273201,0.0559 -0.348251,0.0525 -0.07504,-0.003 -0.117938,0.0243 -0.09532,0.0616 0.0226,0.0373 -0.02001,0.0835 -0.09461,0.10274 -0.09553,0.0246 -0.06493,0.0518 0.103308,0.092 0.131475,0.0314 0.33448,0.13461 0.451115,0.22943 0.211126,0.17161 0.21183,0.17541 0.156485,0.85274 -0.04866,0.59548 -0.06958,0.66611 -0.167681,0.56611 -0.127492,-0.12997 -0.470666,-0.23523 -0.539189,-0.16538 -0.02507,0.0256 0.04026,0.0798 0.145203,0.12044 0.205129,0.0795 0.593613,0.59405 0.598689,0.74525 0.0019,0.0506 0.09035,-0.18472 0.190679,-0.42223 0.100338,-0.23751 0.232189,-0.4422 0.293005,-0.45487 0.103568,-0.0216 0.540306,0.49183 0.712175,0.79164 0.06318,0.11022 0.118543,-0.0396 0.308073,-0.50402 z m -1.42485,-0.30384 c 0,-0.0888 0.05132,-0.15703 0.118241,-0.15703 0.09437,0 0.101598,0.0317 0.03576,0.15703 -0.04533,0.0864 -0.09854,0.15703 -0.118235,0.15703 -0.0197,0 -0.03576,-0.0707 -0.03576,-0.15703 z m -1.445136,0.40344 c 0.08472,-0.16149 0.232271,-0.29453 0.397235,-0.40283 0.273132,-0.1793 0.284236,-0.19927 0.124299,-0.22338 -0.0966,-0.0146 -0.270113,0.0447 -0.385588,0.13174 l -0.209952,0.15824 -0.0486,-0.52432 c -0.09158,-0.98833 -0.07199,-1.14535 0.165168,-1.32409 0.118166,-0.0891 0.326111,-0.18684 0.462113,-0.21729 0.135995,-0.0305 0.24727,-0.0917 0.24727,-0.13604 0,-0.0444 -0.05583,-0.0589 -0.124108,-0.0321 -0.09151,0.0357 -0.111509,0.0151 -0.07614,-0.0789 0.03409,-0.0907 0.01501,-0.11451 -0.06627,-0.0827 -0.06282,0.0246 -0.225934,0.005 -0.362454,-0.0435 -0.191056,-0.0679 -0.255502,-0.066 -0.279784,0.008 -0.01914,0.0586 -0.11905,-0.003 -0.254564,-0.15816 -0.229639,-0.2622 -0.277183,-0.38338 -0.150421,-0.38338 0.07249,0 0.05255,-0.24971 -0.031,-0.38744 -0.02427,-0.0401 -0.0083,-0.0953 0.03539,-0.12291 0.110942,-0.0699 0.0073,-0.21594 -0.11834,-0.1668 -0.05651,0.0221 -0.117265,-0.002 -0.134994,-0.0535 -0.0218,-0.0633 -0.08843,-0.0428 -0.205617,0.0633 l -0.173394,0.15703 0.02742,-0.18803 c 0.02476,-0.1703 -0.0025,-0.18953 -0.288244,-0.20398 -0.341328,-0.0172 -0.619895,0.12864 -0.529691,0.27743 0.03921,0.0647 0.007,0.0764 -0.10781,0.0392 -0.09711,-0.0314 -0.163686,-0.0189 -0.163686,0.0308 0,0.15885 -0.01334,0.2019 -0.093,0.29973 -0.05836,0.0717 -0.04619,0.0981 0.04502,0.0981 0.157053,0 0.16342,0.12518 0.0094,0.18542 -0.18047,0.0706 -0.138323,0.28465 0.05774,0.2934 0.608632,0.0272 0.55338,-0.04 0.607996,0.73815 0.0273,0.38865 0.05187,0.95396 0.05465,1.25624 0.0049,0.54694 0.0043,0.54846 -0.11674,0.31405 -0.140565,-0.2718 -0.397512,-0.57458 -0.566515,-0.66755 -0.07627,-0.0419 -0.02958,0.11733 0.134513,0.45866 0.138249,0.28763 0.316398,0.69815 0.3959,0.91229 l 0.144542,0.49249 0.159265,-0.42141 c 0.180094,-0.35986 0.695822,-0.85949 0.785439,-0.76091 0.03248,0.0357 0.136835,0.28577 0.231918,0.55567 0.09508,0.26989 0.182058,0.61956 0.186968,0.61944 0.08308,-0.15104 0.21462,-0.51043 0.21462,-0.51043 z m -1.444629,-1.60055 c 0.0012,-1.07978 0.01927,-1.27598 0.11708,-1.27796 0.07023,-0.002 0.109138,-0.0662 0.09921,-0.16518 -0.01525,-0.15265 0.0031,-0.1576 0.291987,-0.079 0.245288,0.0667 0.321758,-0.26002 0.303929,-0.13305 -0.134204,0.29942 -0.08809,0.5314 -0.290782,0.51144 -0.187906,-0.0185 -0.250308,0.007 -0.250308,0.10061 0,0.0689 0.06064,0.14702 0.134785,0.17361 0.07412,0.0266 0.282081,0.11471 0.462107,0.19579 l 0.327334,0.14743 v 0.54763 0.54764 h -0.234882 c -0.324432,0 -0.654274,0.19005 -0.816891,0.47069 -0.0752,0.12977 -0.13862,0.23594 -0.140917,0.23594 -0.0025,0 -0.0031,-0.57402 -0.0025,-1.27562 z m 1.002883,0.8044 c 0.0962,-0.15869 0.192463,-0.0713 0.192463,0.17464 0,0.25147 -4.9e-4,0.25195 -0.119988,0.0784 -0.066,-0.0961 -0.09861,-0.20991 -0.07248,-0.25302 z"
       id="path1708-0-9-3"
       inkscape:connector-curvature="0"
       sodipodi:nodetypes="cccccccccccccccscscssscssccccccscccccccccccccccccscsccccccccccsccccccsccccccccccscscccccccccccsccccccccscccccscsccccccc" />
    <path
       style="fill:#483e37;fill-opacity:1;stroke-width:0.10177378"
       d="m 120.70951,134.78614 c 0.15852,-0.42778 0.36698,-0.89056 0.46327,-1.02873 0.3243,-0.46507 -0.0109,-0.25619 -0.4181,0.26096 l -0.40345,0.51219 0.0697,-1.34782 c 0.0383,-0.74128 0.0821,-1.36312 0.0974,-1.38186 0.0154,-0.0191 0.18649,-0.0506 0.38066,-0.0707 0.4396,-0.0478 0.53215,-0.14196 0.31179,-0.32265 -0.16363,-0.1343 -0.16363,-0.14386 1.5e-4,-0.21938 0.11594,-0.054 0.1321,-0.0956 0.0502,-0.13 -0.0665,-0.0287 -0.0961,-0.0951 -0.066,-0.15009 0.03,-0.0549 -0.0237,-0.13192 -0.11948,-0.17207 -0.0958,-0.0383 -0.23905,-0.1496 -0.31829,-0.2428 -0.16265,-0.19215 -0.75785,-0.20027 -0.86173,-0.0143 -0.0364,0.0659 -0.13839,0.0889 -0.22663,0.0511 -0.0886,-0.0383 -0.16044,-0.0142 -0.16044,0.0478 0,0.064 -0.0576,0.0913 -0.12808,0.0613 -0.0907,-0.0383 -0.12808,0.0478 -0.12808,0.29874 0,0.4383 0.18955,0.66534 0.49995,0.59876 0.1828,-0.0383 0.23653,-0.006 0.23653,0.15008 0,0.1104 0.0648,0.20074 0.14408,0.20074 0.12081,0 0.1441,0.23039 0.1441,1.42579 0,1.32269 -0.0109,1.40834 -0.14993,1.18542 -0.18795,-0.30113 -0.62927,-0.56247 -0.95001,-0.56247 -0.23476,0 -0.24494,-0.0239 -0.24494,-0.63389 0,-0.67819 0.0177,-0.70048 0.73561,-0.92646 0.114,-0.0335 0.23374,-0.14243 0.26611,-0.23707 0.0489,-0.14339 0.003,-0.16203 -0.27009,-0.11231 -0.27913,0.0506 -0.33783,0.0239 -0.38786,-0.17447 l -0.059,-0.23373 -0.19043,0.25429 c -0.10475,0.14005 -0.19044,0.19549 -0.19044,0.12283 0,-0.0912 -0.0812,-0.10659 -0.26417,-0.0506 -0.1453,0.043 -0.34076,0.077 -0.43437,0.0722 -0.0936,-0.003 -0.14709,0.0335 -0.11888,0.0846 0.0281,0.0511 -0.025,0.11472 -0.11802,0.141 -0.11914,0.0335 -0.081,0.0712 0.12885,0.12619 0.16399,0.043 0.41718,0.18497 0.56266,0.31498 0.26332,0.23564 0.26421,0.2409 0.19517,1.17107 -0.0607,0.81777 -0.0867,0.9148 -0.20914,0.77742 -0.15901,-0.17828 -0.58703,-0.32311 -0.6725,-0.22703 -0.0314,0.0335 0.0503,0.10945 0.18111,0.16538 0.25585,0.10945 0.74038,0.81584 0.74671,1.02346 0.003,0.0694 0.11269,-0.25332 0.23782,-0.57987 0.12515,-0.32596 0.28959,-0.60726 0.36546,-0.62465 0.12917,-0.0287 0.67389,0.67541 0.88824,1.08714 0.0787,0.15104 0.14786,-0.0545 0.38424,-0.69215 z m -1.77714,-0.41728 c 0,-0.12235 0.064,-0.21555 0.14749,-0.21555 0.1177,0 0.12671,0.043 0.0447,0.21555 -0.0565,0.11855 -0.1229,0.21558 -0.14747,0.21558 -0.0246,0 -0.0447,-0.097 -0.0447,-0.21558 z m -1.80244,0.55403 c 0.10568,-0.22178 0.28972,-0.40437 0.49546,-0.55321 0.34066,-0.24615 0.35451,-0.27387 0.15503,-0.30686 -0.12048,-0.0191 -0.3369,0.0613 -0.48092,0.18115 l -0.26186,0.21701 -0.0606,-0.72011 c -0.11423,-1.35725 -0.0898,-1.57291 0.20601,-1.81839 0.14736,-0.12236 0.40674,-0.25619 0.57635,-0.29826 0.16962,-0.043 0.30841,-0.12571 0.30841,-0.18688 0,-0.0613 -0.0696,-0.0807 -0.15479,-0.043 -0.11414,0.0492 -0.13908,0.0191 -0.095,-0.10803 0.0424,-0.12428 0.0187,-0.15725 -0.0826,-0.11375 -0.0784,0.0335 -0.28178,0.006 -0.45206,-0.0598 -0.2383,-0.0932 -0.31866,-0.0908 -0.34895,0.0143 -0.0239,0.0807 -0.14848,-0.003 -0.31751,-0.21699 -0.28641,-0.35991 -0.34572,-0.52649 -0.1876,-0.52649 0.0904,0 0.0654,-0.34318 -0.0386,-0.53208 -0.0303,-0.055 -0.0104,-0.13048 0.044,-0.16919 0.13838,-0.0956 0.009,-0.29635 -0.1476,-0.22896 -0.0705,0.0287 -0.14625,-0.003 -0.16837,-0.0736 -0.0271,-0.087 -0.11029,-0.0588 -0.25645,0.087 l -0.21628,0.21557 0.0341,-0.25811 c 0.0309,-0.2342 -0.003,-0.26049 -0.35953,-0.28009 -0.42572,-0.0239 -0.77316,0.17637 -0.66065,0.38095 0.0489,0.0888 0.009,0.10467 -0.13446,0.054 -0.12114,-0.043 -0.20416,-0.0239 -0.20416,0.043 0,0.21843 -0.0166,0.27723 -0.11599,0.41152 -0.0728,0.0985 -0.0576,0.1348 0.0561,0.1348 0.19589,0 0.20382,0.17206 0.0118,0.25476 -0.22509,0.097 -0.17253,0.39098 0.072,0.40292 0.75911,0.0383 0.69019,-0.055 0.75832,1.01372 0.0339,0.53376 0.0647,1.31012 0.0681,1.72524 0.006,0.75113 0.006,0.75319 -0.14561,0.43113 -0.17531,-0.37329 -0.49579,-0.78908 -0.70657,-0.91674 -0.0951,-0.0578 -0.037,0.16108 0.16776,0.62991 0.17242,0.3948 0.39463,0.95876 0.49379,1.25286 l 0.18027,0.67632 0.19864,-0.57872 c 0.22463,-0.49422 0.86787,-1.18035 0.97966,-1.04499 0.0405,0.0492 0.17065,0.39242 0.28924,0.76314 0.1186,0.37042 0.22708,0.85082 0.23319,0.85068 0.10364,-0.20744 0.26769,-0.70099 0.26769,-0.70099 z m -1.8018,-2.19804 c 0.002,-1.48286 0.0239,-1.7523 0.14604,-1.75506 0.0876,-0.003 0.13611,-0.0913 0.12375,-0.22704 -0.019,-0.20984 0.004,-0.21652 0.36417,-0.10802 0.30593,0.0918 0.40131,-0.35705 0.37907,-0.18259 -0.16738,0.41106 -0.10987,0.72976 -0.36267,0.70238 -0.23437,-0.0239 -0.3122,0.01 -0.3122,0.13814 0,0.0946 0.0756,0.2017 0.16812,0.2385 0.0924,0.0383 0.35181,0.15773 0.57635,0.2691 l 0.40826,0.20266 v 0.75208 0.75209 h -0.29297 c -0.40461,0 -0.81602,0.26097 -1.01885,0.6464 -0.0938,0.17829 -0.17289,0.32407 -0.17576,0.32407 -0.003,0 -0.004,-0.78832 -0.003,-1.75185 z m 1.25085,1.10473 c 0.11998,-0.21796 0.24004,-0.098 0.24004,0.23994 0,0.34509 -4.5e-4,0.34605 -0.14964,0.10753 -0.0823,-0.13191 -0.123,-0.2882 -0.0903,-0.34747 z"
       id="path1708-0-1"
       inkscape:connector-curvature="0"
       sodipodi:nodetypes="cccccccccccccccscscssscssccccccscccccccccccccccccscsccccccccccsccccccsccccccccccscscccccccccccsccccccccscccccscsccccccc" />
    <path
       style="fill:#483e37;fill-opacity:1;stroke-width:0.11788353"
       d="m 131.9134,134.85104 c -0.19088,-0.47665 -0.44188,-0.99228 -0.55782,-1.14624 -0.3905,-0.51819 0.013,-0.28545 0.50343,0.29077 l 0.48578,0.5707 -0.0839,-1.50177 c -0.0461,-0.82596 -0.0988,-1.51882 -0.11732,-1.5397 -0.0185,-0.0213 -0.22456,-0.0564 -0.45836,-0.0788 -0.52933,-0.0533 -0.64077,-0.15818 -0.37543,-0.3595 0.19704,-0.14964 0.19704,-0.1603 -1.8e-4,-0.24443 -0.1396,-0.0602 -0.15906,-0.10647 -0.0604,-0.14486 0.0801,-0.032 0.11565,-0.10599 0.0794,-0.16723 -0.0361,-0.0612 0.0286,-0.14699 0.14387,-0.19172 0.11541,-0.0427 0.28784,-0.1667 0.38326,-0.27053 0.19585,-0.2141 0.91253,-0.22315 1.03762,-0.0159 0.0437,0.0734 0.16664,0.0991 0.27289,0.057 0.10659,-0.0426 0.19317,-0.0159 0.19317,0.0533 0,0.0713 0.0693,0.10182 0.15423,0.0683 0.1092,-0.0427 0.15422,0.0533 0.15422,0.33285 0,0.48837 -0.22824,0.74135 -0.60201,0.66715 -0.2201,-0.0427 -0.28479,-0.006 -0.28479,0.16723 0,0.123 -0.0781,0.22366 -0.17348,0.22366 -0.14548,0 -0.17352,0.2567 -0.17352,1.58865 0,1.47377 0.013,1.56919 0.18053,1.32081 0.22631,-0.33552 0.75771,-0.62671 1.14392,-0.62671 0.28267,0 0.29492,-0.0266 0.29492,-0.7063 0,-0.75565 -0.0213,-0.78048 -0.88575,-1.03227 -0.13727,-0.0373 -0.28144,-0.1587 -0.32042,-0.26414 -0.0589,-0.15978 -0.004,-0.18055 0.32523,-0.12515 0.33609,0.0564 0.40677,0.0267 0.46701,-0.1944 l 0.0709,-0.26042 0.22929,0.28332 c 0.12614,0.15606 0.2293,0.21783 0.2293,0.13687 0,-0.10169 0.0978,-0.11874 0.31811,-0.0564 0.17495,0.0479 0.41031,0.0857 0.52302,0.0805 0.11267,-0.004 0.17711,0.0373 0.14313,0.0943 -0.0339,0.057 0.0302,0.12782 0.14211,0.15712 0.14347,0.0373 0.0975,0.0793 -0.15514,0.1406 -0.19745,0.0478 -0.50233,0.20609 -0.67751,0.35096 -0.31706,0.26255 -0.31812,0.26842 -0.23499,1.30483 0.0731,0.91116 0.10444,1.01927 0.25182,0.8662 0.19147,-0.19864 0.70685,-0.35999 0.80976,-0.25296 0.0378,0.0373 -0.0606,0.12196 -0.21807,0.18428 -0.30807,0.12194 -0.89151,0.90902 -0.89911,1.14036 -0.004,0.0773 -0.1357,-0.28225 -0.28637,-0.64609 -0.1507,-0.36321 -0.3487,-0.67664 -0.44005,-0.69601 -0.15553,-0.0319 -0.81143,0.75255 -1.06954,1.21132 -0.0948,0.16828 -0.17804,-0.0608 -0.46267,-0.77122 z m 2.13986,-0.46494 c 0,-0.13634 -0.0771,-0.24018 -0.1776,-0.24018 -0.14172,0 -0.15257,0.0479 -0.0539,0.24018 0.068,0.13209 0.14798,0.2402 0.17758,0.2402 0.0296,0 0.0539,-0.10814 0.0539,-0.2402 z"
       id="path1708-0-1-4"
       inkscape:connector-curvature="0"
       sodipodi:nodetypes="cccccccccccccccscscssscssccccccscccccccccccccccccscscc" />
    <path
       style="fill:#483e37;fill-opacity:1;stroke-width:0.16636826"
       d="m 103.9282,126.8578 c 0.14784,0 0.10703,-0.56099 -0.0632,-0.86978 -0.0495,-0.0899 -0.017,-0.2133 0.0721,-0.27659 0.2262,-0.15626 0.015,-0.48442 -0.24127,-0.37425 -0.11525,0.0469 -0.23909,-0.004 -0.27525,-0.12033 -0.0444,-0.1422 -0.18028,-0.0961 -0.41921,0.1422 l -0.35353,0.35238 0.0558,-0.42192 c 0.0505,-0.38285 -0.004,-0.42582 -0.58771,-0.45786 -0.69593,-0.0391 -1.26388,0.28832 -1.07997,0.62273 0.08,0.14532 0.015,0.17111 -0.2198,0.0883 -0.19801,-0.0703 -0.33374,-0.0391 -0.33374,0.0703 0,0.35706 -0.0271,0.45317 -0.1896,0.67272 -0.11901,0.16096 -0.0942,0.22034 0.0917,0.22034 0.32022,0 0.33318,0.28128 0.0193,0.41645 -0.36796,0.15861 -0.28204,0.63913 0.1177,0.65866 1.24091,0.0625 1.12826,-0.0899 1.23962,1.65712 0.0555,0.87252 0.10573,2.14163 0.11136,2.82022 0.0101,1.22786 0.009,1.23122 -0.23801,0.70476 -0.2866,-0.61022 -0.81048,-1.2899 -1.15504,-1.49859 -0.1555,-0.0945 -0.0604,0.26331 0.27423,1.02971 0.28187,0.64538 0.6451,1.56728 0.8072,2.04803 l 0.2947,1.10558 0.32471,-0.94603 c 0.0775,-0.2222 0.11969,-0.51517 0.42084,-0.83363 0.0988,-0.10451 1.24184,-1.82804 0.97241,-1.85218 -0.32027,-0.0287 -1.00527,1.09504 -1.05723,1.01579 -0.68726,-1.04815 -0.41517,-5.89737 1.41189,-5.97413 z m -1.80006,3.82717 c 0.003,-2.424 0.0391,-2.86444 0.23871,-2.86897 0.14324,-0.004 -0.41531,0.0161 -0.43553,-0.20577 0.0431,2.99104 0.19197,6.52418 0.19823,3.07615 z"
       id="path1708-0-89"
       inkscape:connector-curvature="0"
       sodipodi:nodetypes="cccccccccccscsccccccccccssscccccc" />
    <path
       style="fill:#483e37;fill-opacity:1;stroke-width:0.21966158"
       d="m 108.50554,124.28596 c 0.1952,0 0.14132,-0.7407 -0.0834,-1.1484 -0.0654,-0.1187 -0.0224,-0.28163 0.0952,-0.36519 0.29865,-0.20632 0.0198,-0.6396 -0.31856,-0.49414 -0.15217,0.0619 -0.31568,-0.005 -0.36342,-0.15888 -0.0586,-0.18775 -0.23803,-0.12688 -0.5535,0.18776 l -0.46678,0.46526 0.0737,-0.55708 c 0.0667,-0.50549 -0.005,-0.56222 -0.77598,-0.60453 -0.91886,-0.0516 -1.66874,0.38068 -1.42592,0.82221 0.10563,0.19187 0.0198,0.22593 -0.29021,0.11659 -0.26144,-0.0928 -0.44064,-0.0516 -0.44064,0.0928 0,0.47144 -0.0358,0.59833 -0.25034,0.88821 -0.15713,0.21252 -0.12438,0.29093 0.12107,0.29093 0.4228,0 0.43991,0.37138 0.0255,0.54985 -0.48583,0.20942 -0.37239,0.84386 0.1554,0.86965 1.63842,0.0825 1.48968,-0.1187 1.63671,2.18795 0.0733,1.15202 0.1396,2.82767 0.14703,3.72363 0.0133,1.62119 0.0119,1.62562 -0.31425,0.93052 -0.37841,-0.80569 -1.0701,-1.7031 -1.52504,-1.97864 -0.20531,-0.12477 -0.0797,0.34766 0.36208,1.35956 0.37216,0.85212 0.85175,2.06933 1.06577,2.70408 l 0.3891,1.45974 0.42873,-1.24908 c 0.10233,-0.29338 0.15803,-0.68019 0.55565,-1.10067 0.13045,-0.13798 1.63964,-2.41362 1.2839,-2.44549 -0.42286,-0.0379 -1.32729,1.44582 -1.39589,1.34118 -0.90741,-1.38391 -0.54816,-7.7865 1.86416,-7.88784 z m -2.37668,5.05314 c 0.004,-3.20049 0.0516,-3.78202 0.31518,-3.788 0.18913,-0.005 -0.54835,0.0213 -0.57504,-0.27169 0.0569,3.94917 0.25346,8.6141 0.26173,4.06155 z"
       id="path1708-0-89-7"
       inkscape:connector-curvature="0"
       sodipodi:nodetypes="cccccccccccscsccccccccccssscccccc" />
    <path
       style="fill:#483e37;fill-opacity:1;stroke-width:0.20123269"
       d="m 108.61608,134.25371 c -0.32583,-0.81365 -0.75431,-1.69386 -0.95223,-1.95667 -0.66659,-0.88459 0.0222,-0.48729 0.85938,0.49634 l 0.82925,0.97423 -0.14327,-2.56361 c -0.0787,-1.40995 -0.16872,-2.59269 -0.20027,-2.62832 -0.0316,-0.0364 -0.38333,-0.0962 -0.78243,-0.13452 -0.9036,-0.091 -1.09383,-0.27001 -0.64089,-0.61369 0.33636,-0.25543 0.33636,-0.27363 -3.1e-4,-0.41726 -0.2383,-0.10282 -0.27151,-0.18174 -0.10315,-0.24727 0.13678,-0.0546 0.19742,-0.18094 0.13556,-0.28547 -0.0617,-0.10444 0.0489,-0.25091 0.24559,-0.32727 0.197,-0.0729 0.49136,-0.28457 0.65423,-0.46181 0.33432,-0.36549 1.55774,-0.38094 1.77127,-0.0271 0.0747,0.12536 0.28446,0.16912 0.46583,0.0973 0.18196,-0.0726 0.32975,-0.0271 0.32975,0.0909 0,0.1217 0.11824,0.1738 0.26327,0.11662 0.18643,-0.0729 0.26328,0.0909 0.26328,0.56818 0,0.83367 -0.38962,1.26551 -1.02766,1.13886 -0.37572,-0.0729 -0.48615,-0.01 -0.48615,0.28546 0,0.20998 -0.13331,0.38181 -0.29614,0.38181 -0.24834,0 -0.29621,0.4382 -0.29621,2.7119 0,2.51578 0.0222,2.67868 0.30818,2.25469 0.38632,-0.57276 1.29344,-1.06984 1.95272,-1.06984 0.48253,0 0.50345,-0.0453 0.50345,-1.20567 0,-1.28994 -0.0364,-1.33233 -1.51202,-1.76214 -0.23434,-0.0637 -0.48043,-0.27091 -0.54699,-0.4509 -0.10055,-0.27275 -0.006,-0.30819 0.55519,-0.21365 0.57372,0.0962 0.69438,0.0456 0.79721,-0.33184 l 0.12109,-0.44455 0.39142,0.48365 c 0.21533,0.26638 0.39143,0.37184 0.39143,0.23364 0,-0.1736 0.16689,-0.20271 0.54302,-0.0962 0.29864,0.0818 0.70042,0.14633 0.89282,0.13737 0.19233,-0.006 0.30234,0.0637 0.24433,0.16098 -0.0578,0.0973 0.0516,0.2182 0.2426,0.26822 0.24489,0.0637 0.16648,0.13533 -0.26484,0.24 -0.33705,0.0817 -0.85751,0.3518 -1.15653,0.59911 -0.54124,0.44819 -0.54305,0.45821 -0.40115,2.22742 0.12476,1.55538 0.17829,1.73993 0.42987,1.47864 0.32685,-0.33909 1.20664,-0.61453 1.38229,-0.43182 0.0645,0.0637 -0.10337,0.20818 -0.37225,0.31456 -0.52589,0.20817 -1.52184,1.55175 -1.53482,1.94666 -0.006,0.13189 -0.23165,-0.48181 -0.48884,-1.10292 -0.25725,-0.62 -0.59526,-1.15503 -0.7512,-1.18811 -0.2655,-0.0546 -1.38514,1.28464 -1.82575,2.06778 -0.16179,0.28727 -0.30391,-0.1038 -0.7898,-1.31651 z m 3.65284,-0.79367 c 0,-0.23272 -0.13168,-0.40999 -0.30317,-0.40999 -0.24192,0 -0.26043,0.0818 -0.092,0.40999 0.11602,0.22548 0.25261,0.41003 0.30313,0.41003 0.0505,0 0.092,-0.18459 0.092,-0.41003 z"
       id="path1708-0-1-4-1"
       inkscape:connector-curvature="0"
       sodipodi:nodetypes="cccccccccccccccscscssscssccccccscccccccccccccccccscscc" />
  </g>
</svg>
